<svg xmlns="http://www.w3.org/2000/svg" xmlns:xlink="http://www.w3.org/1999/xlink" width="345" height="54" viewBox="0 0 345 54"><defs><style>.a,.b,.d{fill:#fff;}.b,.c{stroke:#707070;}.c,.g{fill:none;}.d{stroke:#000;stroke-width:1.5px;}.e{font-size:25px;font-family:CenturyGothic, Century Gothic;}.f{stroke:none;}.h{filter:url(#e);}.i{filter:url(#c);}.j{filter:url(#a);}</style><filter id="a" x="41" y="0" width="225" height="54" filterUnits="userSpaceOnUse"><feOffset dy="1" input="SourceAlpha"/><feGaussianBlur stdDeviation="3" result="b"/><feFlood flood-opacity="0.349"/><feComposite operator="in" in2="b"/><feComposite in="SourceGraphic"/></filter><filter id="c" x="218" y="11" width="25.5" height="40.5" filterUnits="userSpaceOnUse"><feOffset dx="6" dy="6" input="SourceAlpha"/><feGaussianBlur stdDeviation="1.5" result="d"/><feFlood flood-opacity="0.349"/><feComposite operator="in" in2="d"/><feComposite in="SourceGraphic"/></filter><filter id="e" x="229.009" y="10.94" width="25.5" height="40.5" filterUnits="userSpaceOnUse"><feOffset dx="6" dy="6" input="SourceAlpha"/><feGaussianBlur stdDeviation="1.5" result="f"/><feFlood flood-opacity="0.349"/><feComposite operator="in" in2="f"/><feComposite in="SourceGraphic"/></filter></defs><g transform="translate(-15 -16)"><g transform="translate(0 -4)"><g class="j" transform="matrix(1, 0, 0, 1, 15, 20)"><rect class="a" width="207" height="36" rx="12" transform="translate(50 8)"/></g><g transform="translate(87.524 60.406) rotate(-110)"><g class="b" transform="translate(6)"><ellipse class="f" cx="8" cy="7.75" rx="8" ry="7.75"/><ellipse class="g" cx="8" cy="7.75" rx="7.5" ry="7.25"/></g><line class="c" x1="8" y2="6" transform="translate(0 12)"/></g><path class="d" d="M9.4,22.8a2.606,2.606,0,1,0,0,5.2,2.607,2.607,0,1,0,0-5.2ZM1,2V4.6H3.8l5.04,9.867L6.95,17.652A2.375,2.375,0,0,0,6.6,18.9a2.714,2.714,0,0,0,2.8,2.6H26.2V18.9H9.988a.335.335,0,0,1-.35-.325l.042-.156L10.94,16.3H21.37a2.827,2.827,0,0,0,2.45-1.339l5.012-8.437A1.2,1.2,0,0,0,29,5.9a1.357,1.357,0,0,0-1.4-1.3H6.894L5.578,2H1ZM23.4,22.8a2.607,2.607,0,1,0,2.8,2.6A2.7,2.7,0,0,0,23.4,22.8Z" transform="translate(286 30.788)"/><path d="M19,17c4.144,0,7.5-2.909,7.5-6.5S23.144,4,19,4s-7.5,2.909-7.5,6.5S14.856,17,19,17Zm0,3.25c-5.006,0-15,2.177-15,6.5V30H34V26.75C34,22.427,24.006,20.25,19,20.25Z" transform="translate(326 28.558)"/><g transform="translate(-3028 -2637) rotate(180)"><rect width="35" height="6" rx="3" transform="translate(-3078 -2676)"/><rect width="26" height="6" rx="3" transform="translate(-3069 -2686.018)"/><rect width="15" height="6" rx="3" transform="translate(-3058 -2696)"/></g></g><g class="i" transform="matrix(1, 0, 0, 1, 15, 16)"><text class="e" transform="matrix(-1, 0, 0, 1, 233, 11)"><tspan x="0" y="24">B</tspan></text></g><g class="h" transform="matrix(1, 0, 0, 1, 15, 16)"><text class="e" transform="translate(229.01 10.94)"><tspan x="0" y="24">B</tspan></text></g></g></svg>